Coordinates
version=1
nRows=17
nColumns=24
inDegrees=yes

Units are S.I. units (second, meters, Newtons, ...)
Angles are in degrees.

endheader
time	pelvis_tilt	pelvis_list	pelvis_rotation	pelvis_tx	pelvis_ty	pelvis_tz	hip_flexion_r	hip_adduction_r	hip_rotation_r	knee_angle_r	ankle_angle_r	subtalar_angle_r	mtp_angle_r	hip_flexion_l	hip_adduction_l	hip_rotation_l	knee_angle_l	ankle_angle_l	subtalar_angle_l	mtp_angle_l	lumbar_extension	lumbar_bending	lumbar_rotation
      0.81233333	     -6.86052216	     -1.64043098	     -1.04554386	     -0.05015697	      1.03503561	      0.33669207	     -6.55877296	      4.46935093	     -2.12452065	    -11.04025696	     19.55908650	      1.83375207	      2.29353848	     32.37335403	     -2.15900441	     -2.05365188	     -4.08588207	      9.69267850	      8.61169217	      3.22269944	    -10.47206808	      6.25179319	      4.96034836
      0.81650000	     -6.83485962	     -1.63098863	     -1.11708840	     -0.04408922	      1.03414654	      0.33661146	     -6.79206487	      4.41315792	     -2.09583676	    -11.37365931	     19.61013884	      1.91614942	      2.32406372	     32.44891799	     -2.09551079	     -2.03315850	     -4.51001729	      9.68048903	      8.46698469	      3.23073515	    -10.46325881	      6.13905497	      4.96005389
      0.82066667	     -6.83995846	     -1.60953073	     -1.17733402	     -0.03798071	      1.03320553	      0.33646903	     -6.96001638	      4.32821061	     -2.20683610	    -11.78142197	     19.75594968	      2.30318887	      2.43794495	     32.55632645	     -2.01058323	     -1.95331850	     -4.99283805	      9.58479936	      8.26187526	      3.26413824	    -10.41484882	      6.00400372	      5.00801720
      0.82483333	     -6.81094889	     -1.58114774	     -1.24571010	     -0.03184804	      1.03236046	      0.33638208	     -7.16650164	      4.24124190	     -2.24014258	    -12.18463321	     19.83186289	      2.53612286	      2.55931940	     32.62528919	     -1.92921284	     -1.87383466	     -5.53764268	      9.49510450	      8.06271995	      3.30374201	    -10.41565654	      5.84594041	      5.02070487
      0.82900000	     -6.79726374	     -1.54435039	     -1.31599569	     -0.02566968	      1.03153563	      0.33629470	     -7.34307252	      4.14192773	     -2.28544941	    -12.61855476	     19.86954240	      2.76901379	      2.69756284	     32.70810629	     -1.84135668	     -1.78652007	     -6.13459175	      9.34951865	      7.83604066	      3.34971291	    -10.38009392	      5.68293539	      5.04053107
      0.83316667	     -6.79579577	     -1.51003752	     -1.38374970	     -0.01946048	      1.03071643	      0.33619846	     -7.49557484	      4.04280891	     -2.33664050	    -13.07545834	     19.87748987	      3.00090514	      2.85283424	     32.80827648	     -1.75668503	     -1.67744061	     -6.78964209	      9.17145096	      7.59824469	      3.40136761	    -10.32802099	      5.52143201	      5.05788346
      0.83733333	     -6.79336949	     -1.46917052	     -1.44633294	     -0.01321022	      1.02992608	      0.33609601	     -7.63806192	      3.93356436	     -2.41119491	    -13.55727046	     19.87661808	      3.27322058	      3.06389249	     32.90460152	     -1.66401012	     -1.54209833	     -7.48301770	      8.93461844	      7.32020736	      3.47053978	    -10.26478463	      5.35117180	      5.07631538
      0.84150000	     -6.78551990	     -1.41478300	     -1.51605827	     -0.00692655	      1.02920069	      0.33600748	     -7.77185957	      3.80611153	     -2.47121245	    -14.06956447	     19.83011977	      3.52023565	      3.30770943	     32.98781044	     -1.56437049	     -1.39766514	     -8.20381727	      8.65986596	      7.02508317	      3.54712496	    -10.21352037	      5.15464879	      5.08977795
      0.84566667	     -6.77627773	     -1.36287781	     -1.57304568	     -0.00060516	      1.02850304	      0.33586738	     -7.89593280	      3.67602074	     -2.56743037	    -14.60429455	     19.77024592	      3.79798740	      3.62645859	     33.07475024	     -1.45935832	     -1.23196360	     -8.96801072	      8.35063282	      6.69764071	      3.64059458	    -10.14338236	      4.97552594	      5.10270201
      0.84983333	     -6.76276947	     -1.31672758	     -1.63021461	      0.00572550	      1.02787216	      0.33575429	     -8.02029441	      3.55784811	     -2.59439587	    -15.13618649	     19.53793170	      3.88223408	      6.81977050	     33.15174528	     -1.36281304	     -1.02140214	     -9.74500066	      7.98925599	      6.33152718	      4.54493581	    -10.10166631	      4.79363377	      5.08012152
      0.85400000	     -6.75689452	     -1.24615869	     -1.70758672	      0.01210035	      1.02726426	      0.33565370	     -8.09940484	      3.39793741	     -2.67930459	    -15.75386496	     19.40594828	      4.17472317	      6.87246901	     33.24996691	     -1.26344978	     -0.93094508	    -10.58520626	      7.66723962	      6.12376917	      4.54490899	    -10.03526131	      4.56557299	      5.10527321
      0.85816667	     -6.75263263	     -1.18359935	     -1.76961931	      0.01849015	      1.02669933	      0.33549513	     -8.16117520	      3.24345824	     -2.77843575	    -16.40027344	     19.22555889	      4.45167539	      6.96909718	     33.34622643	     -1.15931669	     -0.76518520	    -11.43343762	      7.31193973	      5.81788360	      4.54541166	     -9.96803358	      4.35887685	      5.11231737
      0.86233333	     -6.73931794	     -1.10856889	     -1.82594598	      0.02491213	      1.02619330	      0.33531031	     -8.21208540	      3.06840736	     -2.90601523	    -17.08772898	     19.04913111	      4.76130034	      7.14420103	     33.43066128	     -1.04041973	     -0.58768525	    -12.29624961	      6.93253616	      5.44716620	      4.54540114	     -9.89466114	      4.13858289	      5.11959125
      0.86650000	     -6.71520733	     -1.03267668	     -1.88274334	      0.03132772	      1.02575398	      0.33510865	     -8.24790976	      2.88704808	     -3.03180416	    -17.82390998	     18.82623228	      5.05438216	      7.43912450	     33.50351494	     -0.92218747	     -0.40246986	    -13.17124864	      6.56482718	      5.07643462	      4.54269905	     -9.85059562	      3.91753394	      5.11958564
      0.87066667	     -6.68840273	     -0.96168106	     -1.94179120	      0.03777226	      1.02539191	      0.33490219	     -8.27591891	      2.70999444	     -3.11961297	    -18.56344966	     18.40712035	      5.21609639	     10.68019758	     33.56501310	     -0.81229834	     -0.21289622	    -14.04183239	      6.17848364	      4.70495270	      4.50763736	     -9.80853949	      3.70603213	      5.08642062
      0.87483333	     -6.65878385	     -0.87143457	     -2.00928471	      0.04426641	      1.02508084	      0.33470086	     -8.27615441	      2.50123915	     -3.23757807	    -19.37117762	     18.04106655	      5.51880703	     10.73366722	     33.63419470	     -0.70239295	     -0.14414638	    -14.95372148	      5.87858185	      4.51853586	      4.49603789	     -9.75827807	      3.44740404	      5.09911369
      0.87900000	     -6.62273722	     -0.77875555	     -2.06391170	      0.05073765	      1.02481125	      0.33442347	     -8.24058308	      2.27699048	     -3.41285204	    -20.26377282	     17.72999794	      5.86378766	     10.88057756	     33.69236057	     -0.57634447	     -0.01999585	    -15.86073008	      5.56716134	      4.20209401	      4.47100314	     -9.71660461	      3.21105439	      5.10735847
